<?xml version="1.0" encoding="utf-8"?>
<!-- Generator: Adobe Illustrator 27.1.1, SVG Export Plug-In . SVG Version: 6.00 Build 0)  -->
<svg version="1.1" id="Layer_1" xmlns="http://www.w3.org/2000/svg" xmlns:xlink="http://www.w3.org/1999/xlink" x="0px" y="0px"
	 viewBox="0 0 24 24" style="enable-background:new 0 0 24 24;" xml:space="preserve">
<style type="text/css">
	.st0{fill:#030303;}
</style>
<path class="st0" d="M20.7,13.3l-4-4c-0.4-0.4-1-0.4-1.4,0s-0.4,1,0,1.4l2.3,2.3H9.2c-0.6,0-1.2-0.2-1.6-0.7c-0.4-0.4-0.7-1-0.7-1.6
	V5c0-0.6-0.4-1-1-1S5,4.4,5,5v5.7c0,1.1,0.4,2.2,1.2,3C7,14.6,8.1,15,9.2,15h8.3l-2.3,2.3c-0.4,0.4-0.4,1,0,1.4
	c0.2,0.2,0.5,0.3,0.7,0.3s0.5-0.1,0.7-0.3l4-4C21.1,14.3,21.1,13.7,20.7,13.3z"/>
</svg>
