<svg width="24" height="24" viewBox="0 0 24 24" fill="none" xmlns="http://www.w3.org/2000/svg">
<g clip-path="url(#clip0_733_406)">
<path d="M22.4901 10.1523C22.1324 10.0711 21.894 10.1929 21.894 10.6396C21.7351 13.3604 20.9007 15.9594 20.7417 18.7208C20.6225 20.467 19.7881 21.3198 18.1192 21.4822C13.7483 21.8071 9.45695 21.2792 5.16556 20.6294C4.17218 20.467 3.41722 19.8579 3.33775 18.802C3.01987 15.5533 2.22516 12.3452 2.70198 9.05584C2.90066 7.75634 3.17881 6.45685 3.37748 5.15736C3.7351 3.24873 4.33112 2.76142 6.19867 2.76142C8.46357 2.76142 10.7682 2.84264 13.0331 3.08629C13.947 3.16751 14.9007 3.1269 15.6159 2.39594C16.053 1.98985 16.2119 1.46193 16.0132 0.893401C15.8146 0.365482 15.3377 0.243655 14.8212 0.243655C14.0662 0.243655 13.3113 0.284264 12.5563 0.243655C10.053 0.162437 7.54967 0 5.08609 0C2.06622 0 0.476819 1.58376 0.158938 4.62944C-0.278148 9.21827 0.238408 13.8071 0.238408 18.4365C0.238408 19.2487 0.476819 20.1015 0.675494 20.9137C0.95364 22.0914 1.66887 22.7005 2.82119 22.9442C5.04635 23.4721 7.35099 23.5939 9.61589 23.5533C12.755 23.5533 15.894 23.5533 18.9934 23.9594C19.3113 24.0812 19.6291 23.9594 19.9868 24.0406C21.4172 24.1624 22.2914 23.3909 22.8477 22.132C23.4834 20.67 23.6026 19.1269 23.6424 17.5838C23.6821 15.6345 23.7616 13.6447 23.9603 11.6954V10.9239C23.5629 10.4365 23.0066 10.3147 22.4503 10.1929L22.4901 10.1523Z" fill="#030303"/>
<path d="M10.6092 12.9137C9.49666 11.4924 8.26487 10.1929 7.23176 8.73097C6.67547 7.91878 5.60262 7.87817 4.88739 8.52792C4.25163 9.09645 4.29136 9.74619 4.96686 10.5584C6.75494 12.7919 8.54302 14.9848 10.1324 17.3807C10.7284 18.2335 11.4039 18.3147 12.0397 17.4619C12.3973 16.9746 12.6755 16.4061 13.0331 15.9188C15.8543 12.5888 18.6755 9.25888 21.894 6.29442C22.2914 5.92894 22.5695 5.52284 22.8079 5.03553C23.0463 4.50762 23.245 3.89848 22.7682 3.41117C22.2516 2.88325 21.6556 2.72081 20.9404 3.00508C20.2649 3.28934 19.7881 3.77665 19.3112 4.30457C16.649 7.39086 13.9867 10.4772 11.2847 13.6041C11.0861 13.3604 10.8477 13.1168 10.6092 12.8325V12.9137Z" fill="#030303"/>
</g>
<defs>
<clipPath id="clip0_733_406">
<rect width="24" height="24" fill="white"/>
</clipPath>
</defs>
</svg>
