<svg width="147" height="42" viewBox="0 0 147 42" fill="none" xmlns="http://www.w3.org/2000/svg">
<path d="M143.455 42C134.097 38.7882 34.3617 41.4695 25.1387 38.0355C18.0818 35.2985 11.0112 31.9483 3.96081 28.7492C3.14243 28.3413 2.30954 26.9616 1.48264 25.6836C0.735282 24.6517 0.0767732 21.2 0.00376261 11.5243C-0.0568991 1.18079 0.624797 -0.392333 1.4083 0.0712826C5.30687 3.21168 9.21409 7.52958 13.0896 8.82814C22.3559 12.7691 119.507 9.46831 128.755 12.1817C133.413 13.5853 140.69 14.6303 145.351 15.931C146.122 16.1401 146.868 18.5558 146.987 29.1993C147.105 39.8428 146.419 41.6728 145.652 41.7195L143.455 42Z" fill="#FCD0F4"/>
</svg>
