<svg width="47" height="64" viewBox="0 0 47 64" fill="none" xmlns="http://www.w3.org/2000/svg">
<path d="M5.53888 39.3629C4.97737 38.2934 3.92454 37.2467 2.61434 37.3832C1.32755 37.497 1.21057 38.7713 1.14038 39.8635C1.09359 40.9102 1.04679 41.9569 1 43.0264C1.11698 52.629 5.63246 58.4315 15.7397 62.0495C28.0461 66.4412 45.4529 54.9045 45.991 42.0252C46.0378 40.933 45.9208 39.9317 45.1722 39.0671C44.5639 38.3844 43.8854 37.7928 42.8793 37.9976C41.8031 38.2251 41.499 39.0671 41.5223 39.9773C41.6861 45.2336 38.2937 48.6696 35.0182 52.1966C28.8884 58.8183 24.6302 60.1608 17.4944 57.6806C7.9487 54.3583 5.96001 51.696 5.70265 41.9797C5.67926 41.115 5.91322 40.091 5.56228 39.3856L5.53888 39.3629Z" fill="#030303" stroke="#030303" stroke-width="0.6"/>
<path d="M33.9744 4.20656C33.8574 2.34066 32.7344 1.22567 30.9796 1.02087C29.0144 0.793324 29.2483 2.47719 29.3185 3.59218C29.7162 11.3061 30.1842 18.9972 30.6287 26.7111C30.7223 28.3267 31.4944 29.5327 33.2023 29.3962C34.9804 29.2597 35.4015 27.7351 35.3547 26.256C35.2846 24.1626 35.074 22.0691 34.9336 19.9757H35.074C34.723 14.7193 34.3487 9.46294 33.9978 4.20656H33.9744Z" fill="#030303" stroke="#030303" stroke-width="0.6"/>
<path d="M18.534 27.2573C19.9849 27.2573 20.7806 26.1423 20.8508 24.8226C20.9678 22.5698 20.8742 20.2943 20.8742 18.0189H20.7806C20.5699 14.196 20.4295 10.3732 20.1253 6.55039C19.9615 4.61622 18.7914 3.22818 16.7321 3.13716C15.1408 3.04614 15.3982 4.4797 15.445 5.4354C15.7493 11.875 16.1237 18.2919 16.4747 24.7315C16.5449 26.0286 17.0597 27.2573 18.5574 27.2573H18.534Z" fill="#030303" stroke="#030303" stroke-width="0.6"/>
</svg>
