<svg width="18" height="20" viewBox="0 0 18 20" fill="none" xmlns="http://www.w3.org/2000/svg">
<path d="M12.75 7.9375C14.28 9.03606 16.1164 9.62633 18 9.625V5.875C16.6076 5.875 15.2723 5.32188 14.2877 4.33731C13.3031 3.35274 12.75 2.01739 12.75 0.625H9V12.625C8.99997 13.0948 8.87388 13.5559 8.63489 13.9603C8.3959 14.3647 8.05276 14.6976 7.64127 14.9242C7.22978 15.1508 6.76502 15.2629 6.29548 15.2486C5.82594 15.2344 5.36882 15.0944 4.97181 14.8433C4.5748 14.5922 4.25245 14.2392 4.03838 13.821C3.82432 13.4029 3.72639 12.9349 3.75481 12.466C3.78323 11.9971 3.93695 11.5445 4.19995 11.1552C4.46294 10.766 4.82557 10.4544 5.25 10.2531V6.35312C4.05617 6.56716 2.94816 7.11732 2.05605 7.93901C1.16394 8.76071 0.524744 9.81984 0.213492 10.9921C-0.0977598 12.1643 -0.0681492 13.4011 0.298848 14.5571C0.665845 15.7131 1.355 16.7404 2.28541 17.5185C3.21583 18.2965 4.34889 18.793 5.5516 18.9497C6.7543 19.1063 7.97674 18.9166 9.07542 18.4029C10.1741 17.8891 11.1034 17.0726 11.7543 16.0492C12.4052 15.0257 12.7506 13.8379 12.75 12.625V7.9375Z" fill="#030303"/>
</svg>
