<svg width="70" height="84" viewBox="0 0 70 84" fill="none" xmlns="http://www.w3.org/2000/svg">
<path d="M21.6787 27.6769L18.3337 10.7692H8.54968V35.4415H14.7428V22.4861L17.313 35.4415H26.0443L28.6146 22.4861V35.4415H34.8077V10.7692H25.0237L21.6787 27.6769Z" fill="white"/>
<path d="M44.9496 30.4715H51.4954L52.7458 35.4415H59.313L52.7458 10.7692H43.6618L37.1428 35.4415H43.6992L44.9496 30.4715ZM46.4565 24.4677L48.2252 17.5161L49.9725 24.4677H46.4565Z" fill="white"/>
<path d="M34.7329 44.8323V37.7892H8.54968V43.7123H26.5947L8.54968 55.4184V62.4615H34.7863V56.5385H16.7253L34.7329 44.8323Z" fill="white"/>
<path d="M37.1428 62.4615H59.1687V56.4954H43.6084V53.0115H55.6473V47.0454H43.6084V43.7608H59.313V37.7892H37.1428V62.4615Z" fill="white"/>
<path d="M70 73.2308H0V68.9231H65.7252V4.30769H0V0H70V73.2308Z" fill="#FFFF48"/>
<path d="M8.54962 79.6923H0V84H8.54962V79.6923Z" fill="#FFFF48"/>
</svg>
