<svg width="338" height="42" viewBox="0 0 338 42" fill="none" xmlns="http://www.w3.org/2000/svg">
<path d="M329.374 42C307.92 38.7882 79.2748 41.4695 58.1309 38.0355C41.9528 35.2985 25.7434 31.9483 9.58023 28.7492C7.70408 28.3413 5.79467 26.9616 3.89898 25.6836C2.18565 24.6517 0.676004 21.2 0.508626 11.5243C0.369558 1.18079 1.93236 -0.392333 3.72856 0.0712826C12.6661 3.21168 21.6235 7.52958 30.5082 8.82814C51.7513 12.7691 274.472 9.46831 295.673 12.1817C306.352 13.5853 323.035 14.6303 333.721 15.931C335.488 16.1401 337.197 18.5558 337.469 29.1993C337.741 39.8428 336.167 41.6728 334.409 41.7195L329.374 42Z" fill="#FFFF48"/>
</svg>
